<?xml version="1.0" standalone="no"?>
<!DOCTYPE svg PUBLIC "-//W3C//DTD SVG 20010904//EN"
 "http://www.w3.org/TR/2001/REC-SVG-20010904/DTD/svg10.dtd">
<svg version="1.0" xmlns="http://www.w3.org/2000/svg"
 width="4267.000000pt" height="4267.000000pt" viewBox="0 0 4267.000000 4267.000000"
 preserveAspectRatio="xMidYMid meet">
<metadata>
Created by potrace 1.11, written by Peter Selinger 2001-2013
</metadata>
<g transform="translate(0.000000,4267.000000) scale(0.100000,-0.100000)"
fill="#000000" stroke="none">
<path d="M0 21335 l0 -21335 21335 0 21335 0 0 21335 0 21335 -21335 0 -21335
0 0 -21335z m31265 10266 c1997 -2041 3631 -3715 3633 -3720 3 -10 -7740
-7773 -7759 -7780 -6 -2 -2645 2630 -5863 5848 l-5851 5851 -2010 -2010 -2009
-2009 2012 -2008 2013 -2008 -3 -1821 -3 -1821 -3835 3823 c-2109 2103 -3835
3830 -3835 3837 0 8 1729 1741 3843 3852 l3843 3838 42 -39 c22 -21 2660
-2653 5860 -5849 3201 -3195 5825 -5810 5832 -5810 11 0 4045 3987 4053 4006
2 4 -884 911 -1967 2015 l-1971 2009 1 1930 0 1930 172 -177 c95 -97 1806
-1846 3802 -3887z m-18295 -19013 c0 -1470 4 -2373 10 -2458 19 -256 65 -450
142 -605 158 -316 412 -467 828 -491 134 -7 307 7 430 37 104 25 265 102 342
163 214 170 336 467 368 896 6 85 10 988 10 2458 l0 2322 820 0 820 0 -3
-2467 c-3 -2663 0 -2489 -52 -2748 -195 -965 -879 -1615 -1915 -1819 -262 -51
-379 -61 -750 -61 -301 1 -366 4 -510 23 -501 68 -877 199 -1211 421 -525 349
-837 873 -946 1591 -16 107 -17 294 -20 2588 l-3 2472 820 0 820 0 0 -2322z
m6054 2300 c3 -13 157 -1276 341 -2808 185 -1532 339 -2793 343 -2803 4 -9
220 1248 481 2795 261 1547 476 2819 479 2826 3 9 185 12 863 12 472 0 859 -1
860 -2 0 -2 202 -1274 448 -2828 247 -1554 451 -2818 454 -2810 3 8 184 1271
401 2805 218 1535 398 2800 401 2813 l5 22 780 0 c429 0 780 -3 780 -6 0 -10
-1149 -6877 -1155 -6901 l-5 -23 -1064 0 c-842 0 -1065 3 -1068 13 -3 6 -196
1188 -429 2624 -233 1437 -426 2613 -429 2613 -3 0 -207 -1176 -454 -2613
-247 -1436 -451 -2618 -454 -2624 -3 -10 -221 -13 -1043 -13 l-1039 0 -5 23
c-5 23 -1135 6891 -1135 6901 0 3 369 6 820 6 l820 0 4 -22z m10011 3 c626
-59 1028 -147 1377 -300 360 -158 639 -403 788 -693 61 -118 123 -300 145
-428 23 -130 31 -403 16 -525 -78 -616 -475 -1059 -1131 -1261 -58 -18 -98
-35 -90 -37 8 -3 73 -20 143 -37 925 -226 1377 -757 1377 -1618 0 -432 -98
-793 -297 -1089 -75 -113 -242 -286 -364 -378 -322 -242 -774 -404 -1354 -484
-388 -54 -382 -54 -1857 -58 l-1378 -4 0 3466 0 3466 1253 -4 c833 -3 1292 -8
1372 -16z"/>
<path d="M28050 12945 l0 -807 423 5 c439 6 494 10 661 56 270 74 450 240 524
482 45 147 52 361 16 524 -55 247 -234 409 -535 484 -169 42 -296 52 -701 58
l-388 6 0 -808z"/>
<path d="M28050 10110 l0 -942 453 5 c567 6 717 23 948 107 243 88 413 265
478 499 61 219 48 513 -30 709 -118 297 -372 469 -794 538 -79 13 -200 18
-577 21 l-478 5 0 -942z"/>
</g>
</svg>
